<svg width="24" height="24" viewBox="0 0 24 24" fill="none" xmlns="http://www.w3.org/2000/svg">
<g clip-path="url(#clip0)">
<path d="M22.8019 19.507H17.922C15.9126 19.507 14.2652 17.8721 14.2652 15.8502C14.2652 13.8159 15.9001 12.1685 17.922 12.1685H22.8019C23.0639 12.1685 23.2636 12.3807 23.2636 12.6303V19.0452C23.2636 19.2949 23.0639 19.507 22.8019 19.507ZM17.922 13.092C16.4118 13.092 15.1888 14.3276 15.1888 15.8502C15.1888 17.3229 16.4368 18.5835 17.922 18.5835H22.3401V13.1045H17.922V13.092Z" fill="#3DC5DF"/>
<path d="M17.5725 17.1357C16.8612 17.1357 16.287 16.5616 16.287 15.8502C16.287 15.1264 16.8612 14.5398 17.5725 14.5398C18.2839 14.5398 18.858 15.1264 18.858 15.8502C18.8455 16.5492 18.2714 17.1357 17.5725 17.1357ZM17.5725 15.4634C17.3729 15.4634 17.2231 15.6256 17.2231 15.8502C17.2231 16.025 17.3604 16.1997 17.5725 16.1997C17.7972 16.1997 17.922 16.0125 17.922 15.8502C17.922 15.6381 17.7597 15.4634 17.5725 15.4634Z" fill="#3DC5DF"/>
<path d="M19.6693 24H2.50858C1.12324 24 0 22.8892 0 21.5289V6.078C0 5.82839 0.212168 5.61623 0.461778 5.61623C0.723869 5.61623 0.923557 5.82839 0.923557 6.078C0.923557 6.93916 1.63495 7.63807 2.50858 7.63807H21.7161C21.9782 7.63807 22.1778 7.85024 22.1778 8.09985V12.6303C22.1778 12.8924 21.9657 13.092 21.7161 13.092C21.4665 13.092 21.2543 12.8799 21.2543 12.6303V8.56162H2.50858C1.90952 8.56162 1.36037 8.34946 0.923557 8V21.5164C0.923557 22.3775 1.63495 23.0764 2.50858 23.0764H19.6693C20.5429 23.0764 21.2543 22.3775 21.2543 21.5164V19.0328C21.2543 18.7707 21.4665 18.571 21.7161 18.571C21.9657 18.571 22.1778 18.7832 22.1778 19.0328V21.5164C22.1778 22.8892 21.0546 24 19.6693 24Z" fill="#3DC5DF"/>
<path d="M19.1201 8.56164C18.858 8.56164 18.6583 8.34947 18.6583 8.09986V4.50548H16.9111C16.649 4.50548 16.4493 4.29331 16.4493 4.0437C16.4493 3.78161 16.6615 3.58192 16.9111 3.58192H19.1201C19.3822 3.58192 19.5819 3.79409 19.5819 4.0437V8.11234C19.5819 8.36195 19.3822 8.56164 19.1201 8.56164ZM0.461778 6.55228C0.199688 6.55228 0 6.34011 0 6.0905C0 4.70517 1.12324 3.58192 2.50858 3.58192H4.46802C4.73011 3.58192 4.9298 3.79409 4.9298 4.0437C4.9298 4.30579 4.71763 4.50548 4.46802 4.50548H2.50858C1.63495 4.50548 0.923557 5.21687 0.923557 6.0905C0.923557 6.34011 0.723869 6.55228 0.461778 6.55228Z" fill="#3DC5DF"/>
<path d="M16.9111 6.92668C16.7988 6.92668 16.6864 6.88924 16.5991 6.80188L10.3963 1.12325L5.16694 6.77692C4.99221 6.96413 4.70516 6.97661 4.51795 6.80188C4.33075 6.62715 4.31827 6.3401 4.49299 6.14041L10.0219 0.149774C10.1966 -0.0374332 10.4836 -0.0499137 10.6708 0.124813L17.2231 6.12793C17.4103 6.30266 17.4228 6.58971 17.2481 6.77692C17.1607 6.87676 17.0359 6.92668 16.9111 6.92668Z" fill="#3DC5DF"/>
<path d="M10.3713 4.59283C9.37285 4.59283 8.36193 4.23089 7.56318 3.50702C7.37597 3.3323 7.36349 3.04524 7.53822 2.85804C7.71295 2.67083 8 2.65835 8.1872 2.83308C9.49766 4.0312 11.532 3.94384 12.7176 2.64587C12.8924 2.45866 13.1794 2.44618 13.3666 2.62091C13.5538 2.79563 13.5663 3.08269 13.3916 3.26989C12.6053 4.14353 11.4945 4.59283 10.3713 4.59283Z" fill="#3DC5DF"/>
<path d="M11.0453 6.92668C10.9205 6.92668 10.8081 6.87676 10.7208 6.7894C10.546 6.60219 10.546 6.31514 10.7208 6.12793L11.2075 5.64119C11.3947 5.46647 11.6818 5.46647 11.869 5.64119C12.0437 5.8284 12.0437 6.11545 11.869 6.30266L11.3822 6.7894C11.2824 6.88924 11.1701 6.92668 11.0453 6.92668Z" fill="#3DC5DF"/>
</g>
<defs>
<clipPath id="clip0">
<rect width="23.2636" height="24" fill="white"/>
</clipPath>
</defs>
</svg>
