<svg width="73" height="36" viewBox="0 0 73 36" fill="none" xmlns="http://www.w3.org/2000/svg">
<g clip-path="url(#clip0)">
<path style="fill: #E95851" fill-rule="evenodd" clip-rule="evenodd" d="M61.0559 18.072C61.4536 18.072 61.7759 18.3944 61.7759 18.792V34.344C61.7759 34.7417 61.4536 35.064 61.0559 35.064C60.6583 35.064 60.3359 34.7417 60.3359 34.344V18.792C60.3359 18.3944 60.6583 18.072 61.0559 18.072Z" fill="#64686E"/>
<path style="fill: #E95851" fill-rule="evenodd" clip-rule="evenodd" d="M37.872 18.072C38.2696 18.072 38.592 18.3944 38.592 18.792V34.344C38.592 34.7417 38.2696 35.064 37.872 35.064C37.4743 35.064 37.152 34.7417 37.152 34.344V18.792C37.152 18.3944 37.4743 18.072 37.872 18.072Z" fill="#64686E"/>
<path style="fill: #E95851" fill-rule="evenodd" clip-rule="evenodd" d="M6.98404 18.576C7.38168 18.576 7.70404 18.8983 7.70404 19.296V34.344C7.70404 34.7416 7.38168 35.064 6.98404 35.064C6.58639 35.064 6.26404 34.7416 6.26404 34.344V19.296C6.26404 18.8983 6.58639 18.576 6.98404 18.576Z" fill="#64686E"/>
<path style="fill: #E95851" fill-rule="evenodd" clip-rule="evenodd" d="M31.464 22.392C31.8617 22.392 32.184 22.7144 32.184 23.112V34.776C32.184 35.1736 31.8617 35.496 31.464 35.496C31.0664 35.496 30.744 35.1736 30.744 34.776V23.112C30.744 22.7144 31.0664 22.392 31.464 22.392Z" fill="#64686E"/>
<path style="fill: #E95851" fill-rule="evenodd" clip-rule="evenodd" d="M21.528 22.392C21.9256 22.392 22.248 22.7144 22.248 23.112V34.776C22.248 35.1736 21.9256 35.496 21.528 35.496C21.1303 35.496 20.808 35.1736 20.808 34.776V23.112C20.808 22.7144 21.1303 22.392 21.528 22.392Z" fill="#64686E"/>
<path style="fill: #E95851" fill-rule="evenodd" clip-rule="evenodd" d="M11.664 22.392C12.0616 22.392 12.384 22.7144 12.384 23.112V34.776C12.384 35.1736 12.0616 35.496 11.664 35.496C11.2663 35.496 10.944 35.1736 10.944 34.776V23.112C10.944 22.7144 11.2663 22.392 11.664 22.392Z" fill="#64686E"/>
<path style="fill: #E95851" fill-rule="evenodd" clip-rule="evenodd" d="M11.016 23.184C11.016 22.7863 11.3383 22.464 11.736 22.464H31.464C31.8616 22.464 32.184 22.7863 32.184 23.184C32.184 23.5816 31.8616 23.904 31.464 23.904H11.736C11.3383 23.904 11.016 23.5816 11.016 23.184Z" fill="#64686E"/>
<path style="fill: #E95851" fill-rule="evenodd" clip-rule="evenodd" d="M46.8328 34.3073C56.301 34.2148 65.1955 34.128 71.928 34.128C72.3256 34.128 72.648 34.4503 72.648 34.848C72.648 35.2456 72.3256 35.568 71.928 35.568C65.227 35.568 56.3516 35.6546 46.8934 35.7469C30.48 35.907 12.3116 36.0843 0.705832 35.8558C0.308264 35.848 -0.00768382 35.5194 0.000142308 35.1218C0.00796844 34.7243 0.336605 34.4083 0.734173 34.4161C12.3235 34.6443 30.4382 34.4674 46.8328 34.3073Z" fill="#64686E"/>
<path style="fill: #E95851" fill-rule="evenodd" clip-rule="evenodd" d="M44.4522 17.9103C52.0426 17.9843 59.3241 18.0553 67.3742 17.8562C67.7717 17.8464 68.1019 18.1607 68.1117 18.5582C68.1216 18.9557 67.8073 19.2859 67.4098 19.2958C59.3325 19.4956 52.0202 19.4242 44.4263 19.3501C42.4277 19.3306 40.4095 19.311 38.3527 19.296C28.478 19.224 17.6928 19.26 3.85145 19.9431C3.45429 19.9627 3.11644 19.6566 3.09684 19.2595C3.07724 18.8623 3.38331 18.5245 3.78047 18.5049C17.6591 17.8199 28.4739 17.784 38.3632 17.856C40.4275 17.8711 42.4506 17.8908 44.4522 17.9103Z" fill="#64686E"/>
<path style="fill: #E95851" fill-rule="evenodd" clip-rule="evenodd" d="M49.399 0.199049C49.6867 -0.0754362 50.1425 -0.0647127 50.417 0.223001C56.3827 6.47622 62.9262 12.8761 67.533 17.3389C67.8186 17.6155 67.8258 18.0714 67.5492 18.357C67.2725 18.6426 66.8167 18.6498 66.5311 18.3731C61.9218 13.9079 55.3614 7.49179 49.3751 1.217C49.1006 0.929287 49.1113 0.473535 49.399 0.199049Z" fill="#64686E"/>
<path style="fill: #E95851" fill-rule="evenodd" clip-rule="evenodd" d="M50.4783 0.296506C50.7122 0.618096 50.6411 1.0684 50.3195 1.30228C49.556 1.85756 48.5888 2.68872 47.9832 3.36164L47.9797 3.36548L47.9797 3.36546C45.7118 5.84936 43.4619 8.31526 41.2119 10.7813L41.2048 10.789C38.9572 13.2524 36.7095 15.716 34.4437 18.1975C34.1756 18.4911 33.7202 18.5118 33.4265 18.2437C33.1329 17.9756 33.1122 17.5202 33.3803 17.2265C35.647 14.744 37.8957 12.2794 40.1445 9.81469L40.1481 9.8107C42.3976 7.34532 44.6471 4.87984 46.9146 2.39636C47.605 1.62972 48.6528 0.733904 49.4725 0.1377C49.7941 -0.0961838 50.2444 -0.0250837 50.4783 0.296506Z" fill="#64686E"/>
<path style="fill: #E95851" fill-rule="evenodd" clip-rule="evenodd" d="M3.16797 6.11999C3.16797 5.72235 3.49032 5.39999 3.88797 5.39999H43.416C43.8136 5.39999 44.136 5.72235 44.136 6.11999C44.136 6.51764 43.8136 6.83999 43.416 6.83999H3.88797C3.49032 6.83999 3.16797 6.51764 3.16797 6.11999Z" fill="#64686E"/>
<path style="fill: #E95851" fill-rule="evenodd" clip-rule="evenodd" d="M3.72521 5.54598C4.12177 5.57535 4.41943 5.92064 4.39006 6.3172C4.10576 10.1552 4.24731 14.5798 4.53406 18.4508C4.56343 18.8474 4.26577 19.1927 3.86921 19.222C3.47265 19.2514 3.12736 18.9538 3.09799 18.5572C2.80874 14.6523 2.66228 10.1489 2.95399 6.21082C2.98336 5.81426 3.32865 5.5166 3.72521 5.54598Z" fill="#64686E"/>
<path style="fill: #E95851" fill-rule="evenodd" clip-rule="evenodd" d="M57.6008 31.9613H51.3368V22.6733H57.6008V31.9613ZM56.1608 30.5213V24.1133H52.7768V30.5213H56.1608Z" fill="#64686E"/>
<path style="fill: #E95851" fill-rule="evenodd" clip-rule="evenodd" d="M49.65 31.9613H43.386V22.6733H49.65V31.9613ZM48.21 30.5213V24.1133H44.826V30.5213H48.21Z" fill="#64686E"/>
<path style="fill: #E95851" fill-rule="evenodd" clip-rule="evenodd" d="M48.5982 10.6814C49.4518 10.172 50.4491 9.96944 51.3988 10.2544L51.4093 10.2575L51.4196 10.261C51.7018 10.355 52.0437 10.5274 52.3048 10.7006C53.2257 11.2886 53.9514 12.1889 54.4279 13.142C54.6058 13.4977 54.4616 13.9302 54.1059 14.108C53.7503 14.2858 53.3178 14.1417 53.14 13.786C52.7536 13.0133 52.1855 12.3315 51.5254 11.9114L51.5189 11.9073L51.5126 11.9031C51.3463 11.7922 51.122 11.6813 50.9742 11.6304C50.4895 11.4888 49.9106 11.5733 49.3304 11.9214L49.3217 11.9266L49.3129 11.9315C48.3399 12.4789 47.6883 13.3776 47.5101 14.4464C47.4448 14.8386 47.0738 15.1036 46.6816 15.0382C46.2893 14.9728 46.0244 14.6019 46.0897 14.2096C46.3431 12.6897 47.2719 11.4306 48.5982 10.6814Z" fill="#64686E"/>
<path style="fill: #E95851" fill-rule="evenodd" clip-rule="evenodd" d="M55.2949 13.9269C55.3176 14.3239 55.0141 14.6641 54.6171 14.6868C52.0766 14.832 49.6113 14.832 47.0978 14.832H47.088C46.6904 14.832 46.368 14.5097 46.368 14.112C46.368 13.7144 46.6904 13.392 47.088 13.392C49.6112 13.392 52.0388 13.3918 54.535 13.2492C54.932 13.2265 55.2722 13.5299 55.2949 13.9269Z" fill="#64686E"/>
<path style="fill: #E95851" fill-rule="evenodd" clip-rule="evenodd" d="M38.453 8.20289C38.7342 8.48406 38.7342 8.93994 38.453 9.22112L31.685 15.9891C31.4039 16.2703 30.948 16.2703 30.6668 15.9891C30.3856 15.7079 30.3856 15.2521 30.6668 14.9709L37.4348 8.20289C37.716 7.92171 38.1719 7.92171 38.453 8.20289Z" fill="#64686E"/>
<path style="fill: #E95851" fill-rule="evenodd" clip-rule="evenodd" d="M34.5651 8.20289C34.8463 8.48406 34.8463 8.93994 34.5651 9.22112L27.7971 15.9891C27.5159 16.2703 27.0601 16.2703 26.7789 15.9891C26.4977 15.7079 26.4977 15.2521 26.7789 14.9709L33.5469 8.20289C33.8281 7.92171 34.2839 7.92171 34.5651 8.20289Z" fill="#64686E"/>
<path style="fill: #E95851" fill-rule="evenodd" clip-rule="evenodd" d="M30.6772 8.20289C30.9584 8.48406 30.9584 8.93994 30.6772 9.22112L23.9092 15.9891C23.628 16.2703 23.1721 16.2703 22.8909 15.9891C22.6098 15.7079 22.6098 15.2521 22.8909 14.9709L29.6589 8.20289C29.9401 7.92171 30.396 7.92171 30.6772 8.20289Z" fill="#64686E"/>
<path style="fill: #E95851" fill-rule="evenodd" clip-rule="evenodd" d="M26.7891 8.20289C27.0703 8.48406 27.0703 8.93994 26.7891 9.22112L20.0211 15.9891C19.7399 16.2703 19.2841 16.2703 19.0029 15.9891C18.7217 15.7079 18.7217 15.2521 19.0029 14.9709L25.7709 8.20289C26.0521 7.92171 26.5079 7.92171 26.7891 8.20289Z" fill="#64686E"/>
<path style="fill: #E95851" fill-rule="evenodd" clip-rule="evenodd" d="M22.9012 8.20289C23.1823 8.48406 23.1823 8.93994 22.9012 9.22112L16.1332 15.9891C15.852 16.2703 15.3961 16.2703 15.1149 15.9891C14.8338 15.7079 14.8338 15.2521 15.1149 14.9709L21.8829 8.20289C22.1641 7.92171 22.62 7.92171 22.9012 8.20289Z" fill="#64686E"/>
<path style="fill: #E95851" fill-rule="evenodd" clip-rule="evenodd" d="M19.0131 8.20289C19.2943 8.48406 19.2943 8.93994 19.0131 9.22112L12.2451 15.9891C11.9639 16.2703 11.5081 16.2703 11.2269 15.9891C10.9457 15.7079 10.9457 15.2521 11.2269 14.9709L17.9949 8.20289C18.2761 7.92171 18.7319 7.92171 19.0131 8.20289Z" fill="#64686E"/>
<path style="fill: #E95851" fill-rule="evenodd" clip-rule="evenodd" d="M15.1252 8.20289C15.4063 8.48406 15.4063 8.93994 15.1252 9.22112L8.35717 15.9891C8.07599 16.2703 7.62011 16.2703 7.33893 15.9891C7.05776 15.7079 7.05776 15.2521 7.33893 14.9709L14.1069 8.20289C14.3881 7.92171 14.844 7.92171 15.1252 8.20289Z" fill="#64686E"/>
<path style="fill: #E95851" fill-rule="evenodd" clip-rule="evenodd" d="M11.2371 8.20289C11.5183 8.48406 11.5183 8.93994 11.2371 9.22112L4.46911 15.9891C4.18793 16.2703 3.73205 16.2703 3.45087 15.9891C3.1697 15.7079 3.1697 15.2521 3.45087 14.9709L10.2189 8.20289C10.5001 7.92171 10.9559 7.92171 11.2371 8.20289Z" fill="#64686E"/>
</g>
<defs>
<clipPath id="clip0">
<rect width="72.648" height="36" fill="white"/>
</clipPath>
</defs>
</svg>
