<svg width="28" height="24" viewBox="0 0 28 24" fill="none" xmlns="http://www.w3.org/2000/svg">
<g clip-path="url(#clip0)">
<path d="M21.5104 21.4819C20.4007 21.4819 19.4902 20.5714 19.4902 19.4617C19.4902 18.3663 20.415 17.4416 21.5104 17.4416C22.62 17.4416 23.5305 18.3521 23.5305 19.4617C23.5448 20.5999 22.6485 21.4819 21.5104 21.4819ZM21.5104 18.4943C20.9982 18.4943 20.543 18.9496 20.543 19.4617C20.543 19.9881 20.9698 20.4291 21.5104 20.4291C22.0652 20.4291 22.4778 20.0166 22.4778 19.4617C22.4778 18.9354 22.051 18.4943 21.5104 18.4943Z" fill="#3DC5DF"/>
<path d="M20.0308 21.4819C18.9212 21.4819 18.0107 20.5714 18.0107 19.4617C18.0107 18.3663 18.9354 17.4416 20.0308 17.4416C20.4292 17.4416 20.7848 17.5412 21.0836 17.7546L20.4718 18.6224C20.358 18.537 20.2158 18.5086 20.0308 18.5086C19.5187 18.5086 19.0634 18.9638 19.0634 19.476C19.0634 20.1731 19.8032 20.6852 20.543 20.3153L21.0125 21.2685C20.6852 21.3965 20.358 21.4819 20.0308 21.4819Z" fill="#3DC5DF"/>
<path d="M13.5009 19.1488H2.95912C2.66036 19.1488 2.43274 18.9069 2.43274 18.6224C2.43274 18.3236 2.67459 18.096 2.95912 18.096H13.5009C13.7997 18.096 14.0273 18.3379 14.0273 18.6224C14.0273 18.9211 13.7854 19.1488 13.5009 19.1488Z" fill="#3DC5DF"/>
<path d="M9.20452 21.297H2.95912C2.66036 21.297 2.43274 21.0551 2.43274 20.7706C2.43274 20.4719 2.67459 20.2442 2.95912 20.2442H9.20452C9.50328 20.2442 9.7309 20.4861 9.7309 20.7706C9.7309 21.0551 9.48905 21.297 9.20452 21.297Z" fill="#3DC5DF"/>
<path d="M23.8151 24H2.41849C1.08121 24 0 22.9188 0 21.5815V9.38944C0 8.0237 1.06698 6.97095 2.41849 6.97095H11.7084C12.0071 6.97095 12.2347 7.2128 12.2347 7.49733C12.2347 7.78185 11.9929 8.0237 11.7084 8.0237H2.41849C1.65027 8.0237 1.05276 8.62121 1.05276 9.38944V21.5815C1.05276 22.3355 1.66449 22.9472 2.41849 22.9472H23.8151C24.5406 22.9472 25.1523 22.3213 25.1523 21.5815V13.6858C25.1523 13.3871 25.3942 13.1594 25.6787 13.1594C25.9775 13.1594 26.2051 13.4013 26.2051 13.6858V21.5815C26.2051 22.9188 25.1381 24 23.8151 24Z" fill="#3DC5DF"/>
<path d="M2.91645 16.3889C2.6177 16.3889 2.39008 16.147 2.39008 15.8625V14.7386C2.39008 14.4398 2.63193 14.2122 2.91645 14.2122C3.20098 14.2122 3.44283 14.4541 3.44283 14.7386V15.8625C3.45706 16.147 3.21521 16.3889 2.91645 16.3889Z" fill="#3DC5DF"/>
<path d="M5.50563 16.3889C5.20687 16.3889 4.97925 16.147 4.97925 15.8625V14.7386C4.97925 14.4398 5.2211 14.2122 5.50563 14.2122C5.80438 14.2122 6.032 14.4541 6.032 14.7386V15.8625C6.032 16.147 5.79015 16.3889 5.50563 16.3889Z" fill="#3DC5DF"/>
<path d="M8.08064 16.3889C7.78188 16.3889 7.55426 16.147 7.55426 15.8625V14.7386C7.55426 14.4398 7.79611 14.2122 8.08064 14.2122C8.37939 14.2122 8.60702 14.4541 8.60702 14.7386V15.8625C8.60702 16.147 8.37939 16.3889 8.08064 16.3889Z" fill="#3DC5DF"/>
<path d="M10.6414 16.3889C10.3426 16.3889 10.115 16.147 10.115 15.8625V14.7386C10.115 14.4398 10.3568 14.2122 10.6414 14.2122C10.9401 14.2122 11.1677 14.4541 11.1677 14.7386V15.8625C11.1677 16.147 10.9259 16.3889 10.6414 16.3889Z" fill="#3DC5DF"/>
<path d="M13.2163 16.3889C12.9176 16.3889 12.6899 16.147 12.6899 15.8625V14.7386C12.6899 14.4398 12.9318 14.2122 13.2163 14.2122C13.5151 14.2122 13.7427 14.4541 13.7427 14.7386V15.8625C13.7427 16.147 13.5008 16.3889 13.2163 16.3889Z" fill="#3DC5DF"/>
<path d="M20.984 16.3889C20.6853 16.3889 20.4576 16.147 20.4576 15.8625V15.6491C20.4576 15.3503 20.6995 15.1227 20.984 15.1227C21.2828 15.1227 21.5104 15.3646 21.5104 15.6491V15.8625C21.5104 16.147 21.2828 16.3889 20.984 16.3889Z" fill="#3DC5DF"/>
<path d="M23.6016 16.3888C23.3029 16.3888 23.0753 16.147 23.0753 15.8625V14.9662C23.0753 14.6674 23.3171 14.4398 23.6016 14.4398C23.8862 14.4398 24.128 14.6817 24.128 14.9662V15.8625C24.128 16.147 23.8862 16.3888 23.6016 16.3888Z" fill="#3DC5DF"/>
<path d="M15.8198 16.3889C15.521 16.3889 15.2934 16.147 15.2934 15.8625V14.7386C15.2934 14.4398 15.5352 14.2122 15.8198 14.2122C16.1185 14.2122 16.3462 14.4541 16.3462 14.7386V15.8625C16.3604 16.147 16.1185 16.3889 15.8198 16.3889Z" fill="#3DC5DF"/>
<path d="M18.409 16.3888C18.1103 16.3888 17.8826 16.147 17.8826 15.8625V15.4926C17.8826 15.1938 18.1245 14.9662 18.409 14.9662C18.7078 14.9662 18.9354 15.208 18.9354 15.4926V15.8625C18.9354 16.147 18.6935 16.3888 18.409 16.3888Z" fill="#3DC5DF"/>
<path d="M20.2158 14.326C16.2751 14.326 13.0599 11.1109 13.0599 7.17013C13.0599 3.21518 16.2608 0 20.2158 0C24.1707 0 27.4001 3.21518 27.4001 7.18435C27.4001 11.1251 24.1707 14.326 20.2158 14.326ZM20.2158 1.05276C16.8583 1.05276 14.1269 3.79846 14.1269 7.18435C14.1269 10.5418 16.8583 13.2733 20.2158 13.2733C23.5874 13.2733 26.3474 10.5418 26.3474 7.18435C26.3331 3.79846 23.5874 1.05276 20.2158 1.05276Z" fill="#3DC5DF"/>
<path d="M19.5898 7.71073C18.594 7.71073 17.7546 6.88559 17.7546 5.90397C17.7546 4.89389 18.5798 4.06876 19.5898 4.06876C19.8886 4.06876 20.1162 4.31061 20.1162 4.59513C20.1162 4.87966 19.8744 5.12151 19.5898 5.12151C19.1631 5.12151 18.8074 5.47717 18.8074 5.90397C18.8074 6.30231 19.1773 6.64374 19.5898 6.64374C19.8886 6.64374 20.1162 6.88559 20.1162 7.17012C20.1162 7.46888 19.8744 7.71073 19.5898 7.71073Z" fill="#3DC5DF"/>
<path d="M20.8702 10.2573C20.5714 10.2573 20.3438 10.0154 20.3438 9.7309C20.3438 9.44637 20.5857 9.20452 20.8702 9.20452C21.297 9.20452 21.61 8.87731 21.61 8.46475C21.61 8.03795 21.2828 7.71075 20.8702 7.71075C20.5714 7.71075 20.3438 7.4689 20.3438 7.18437C20.3438 6.88561 20.5857 6.65799 20.8702 6.65799C21.8803 6.65799 22.6769 7.45467 22.6769 8.46475C22.6627 9.47482 21.8803 10.2573 20.8702 10.2573Z" fill="#3DC5DF"/>
<path d="M20.8702 7.71075H19.5898C19.291 7.71075 19.0634 7.4689 19.0634 7.18437C19.0634 6.88561 19.3053 6.65799 19.5898 6.65799H20.8702C21.1689 6.65799 21.3966 6.89984 21.3966 7.18437C21.3966 7.4689 21.1547 7.71075 20.8702 7.71075Z" fill="#3DC5DF"/>
<path d="M20.8702 10.2573H18.2952C17.9964 10.2573 17.7688 10.0154 17.7688 9.73088C17.7688 9.44635 18.0106 9.2045 18.2952 9.2045H20.8702C21.1689 9.2045 21.3966 9.44635 21.3966 9.73088C21.3966 10.0154 21.1547 10.2573 20.8702 10.2573Z" fill="#3DC5DF"/>
<path d="M22.1363 5.13573H19.5898C19.291 5.13573 19.0634 4.89388 19.0634 4.60936C19.0634 4.32483 19.3053 4.08298 19.5898 4.08298H22.1363C22.4351 4.08298 22.6627 4.32483 22.6627 4.60936C22.6627 4.89388 22.4351 5.13573 22.1363 5.13573Z" fill="#3DC5DF"/>
<path d="M20.2158 5.13576C19.917 5.13576 19.6894 4.89391 19.6894 4.60938V3.55662C19.6894 3.25787 19.9312 3.03024 20.2158 3.03024C20.5145 3.03024 20.7421 3.27209 20.7421 3.55662V4.60938C20.7421 4.89391 20.5003 5.13576 20.2158 5.13576Z" fill="#3DC5DF"/>
<path d="M20.2158 11.31C19.917 11.31 19.6894 11.0682 19.6894 10.7836V9.73088C19.6894 9.43212 19.9312 9.2045 20.2158 9.2045C20.5145 9.2045 20.7421 9.44635 20.7421 9.73088V10.7836C20.7421 11.0824 20.5003 11.31 20.2158 11.31Z" fill="#3DC5DF"/>
</g>
<defs>
<clipPath id="clip0">
<rect width="27.4001" height="24" fill="white"/>
</clipPath>
</defs>
</svg>
